<?xml version="1.0" encoding="iso-8859-1"?>
<!-- Generator: Adobe Illustrator 19.0.0, SVG Export Plug-In . SVG Version: 6.00 Build 0)  -->
<svg version="1.1" id="Layer_1" xmlns="http://www.w3.org/2000/svg" xmlns:xlink="http://www.w3.org/1999/xlink" x="0px" y="0px"
	 viewBox="0 0 512 512" style="enable-background:new 0 0 512 512;" xml:space="preserve">
<polygon style="fill:#42C8C6;" points="503.83,94.863 503.83,238.296 471.149,238.296 417.598,167.033 471.149,94.863 "/>
<rect x="360.393" y="94.86" style="fill:#81E3E2;" width="110.755" height="143.436"/>
<polygon style="fill:#42C8C6;" points="151.603,94.863 151.603,238.296 118.922,238.296 65.372,167.033 118.922,94.863 "/>
<rect x="8.17" y="94.86" style="fill:#81E3E2;" width="110.755" height="143.436"/>
<polygon style="fill:#FEDC3D;" points="327.716,94.863 327.716,238.296 295.035,238.296 241.484,167.033 295.035,94.863 "/>
<rect x="184.287" y="94.86" style="fill:#FFE777;" width="110.755" height="143.436"/>
<polygon style="fill:#FE5F1A;" points="151.603,325.445 151.603,468.878 118.922,468.878 65.372,397.615 118.922,325.445 "/>
<rect x="8.17" y="325.445" style="fill:#FE834D;" width="110.755" height="143.436"/>
<polygon style="fill:#FEDC3D;" points="327.716,325.445 327.716,468.878 295.035,468.878 241.484,397.615 295.035,325.445 "/>
<rect x="184.287" y="325.445" style="fill:#FFE777;" width="110.755" height="143.436"/>
<polygon style="fill:#FE5F1A;" points="503.83,325.445 503.83,468.878 471.149,468.878 417.598,397.615 471.149,325.445 "/>
<rect x="360.393" y="325.445" style="fill:#FE834D;" width="110.755" height="143.436"/>
<g>
	<path style="fill:#42C8C6;" d="M503.83,59.459H8.17c-4.513,0-8.17-3.657-8.17-8.17s3.657-8.17,8.17-8.17h495.66
		c4.513,0,8.17,3.657,8.17,8.17S508.343,59.459,503.83,59.459z"/>
	<path style="fill:#42C8C6;" d="M503.83,290.041H8.17c-4.513,0-8.17-3.657-8.17-8.17c0-4.513,3.657-8.17,8.17-8.17h495.66
		c4.513,0,8.17,3.657,8.17,8.17C512,286.384,508.343,290.041,503.83,290.041z"/>
</g>
<g>
</g>
<g>
</g>
<g>
</g>
<g>
</g>
<g>
</g>
<g>
</g>
<g>
</g>
<g>
</g>
<g>
</g>
<g>
</g>
<g>
</g>
<g>
</g>
<g>
</g>
<g>
</g>
<g>
</g>
</svg>
